# xmcd CD database file
#
# Track frame offsets:
#	150
#	47052
#	64481
#	80840
#	106052
#	129466
#	153701
#	176508
#	199934
#	230469
#	247386
#	264558
#	287222
#	306031
#
# Disc length: 4306 seconds
#
# Revision: 0
# Processed by: cddbd v1.4PL0 Copyright (c) Steve Scherf et al.
# Submitted via: CDex 1.50
#
DISCID=d410d00e
DTITLE=H. Lavoe - O. D'Leon - C. Valoy - W. Colon - Perfecta Combinacion vol. 2
DYEAR=1900
DGENRE=Salsa
TTITLE0=El Cantante
TTITLE1=Sigue tu camino
TTITLE2=El Aborto
TTITLE3=La Murga
TTITLE4=Ausencia
TTITLE5=Melao de caña
TTITLE6=Baila gitana
TTITLE7=Idilio
TTITLE8=Periodico de ayer
TTITLE9=Lloraras
TTITLE10=Amor para mi
TTITLE11=Todo tiene su final
TTITLE12=Rumba rumbero
TTITLE13=Calle luna, calle sol
EXTD=
EXTT0=
EXTT1=
EXTT2=
EXTT3=
EXTT4=
EXTT5=
EXTT6=
EXTT7=
EXTT8=
EXTT9=
EXTT10=
EXTT11=
EXTT12=
EXTT13=
PLAYORDER=
